<?xml version="1.0" encoding="UTF-8"?>
<svg version="1.1" xmlns="http://www.w3.org/2000/svg" width="1024" height="1024">
<path d="M0 0 C337.92 0 675.84 0 1024 0 C1024 337.92 1024 675.84 1024 1024 C686.08 1024 348.16 1024 0 1024 C0 686.08 0 348.16 0 0 Z " fill="#FEFAF1" transform="translate(0,0)"/>
<path d="M0 0 C0.01401855 0.89138672 0.01401855 0.89138672 0.02832031 1.80078125 C0.08252993 4.53464645 0.16607278 7.26689199 0.25 10 C0.26417969 10.93457031 0.27835938 11.86914062 0.29296875 12.83203125 C0.54133831 19.93540055 1.85157572 25.49363422 6.68359375 30.875 C12.78655515 34.78959439 18.91722599 35.08761698 26 34 C30.82011587 32.27145924 33.84525112 29.70645377 36.4375 25.3125 C36.953125 24.219375 37.46875 23.12625 38 22 C38.33 21.34 38.66 20.68 39 20 C39.33 13.4 39.66 6.8 40 0 C60.46 0 80.92 0 102 0 C102.33 6.27 102.66 12.54 103 19 C105.90521429 26.74723811 107.1649282 29.04926025 113.82421875 33.11328125 C119.24106134 35.32086342 125.99574367 34.65593843 131.4375 32.875 C136.10642986 29.45870986 139.31445691 25.53297841 141 20 C141.37713303 16.56750018 141.50796871 13.13748479 141.625 9.6875 C141.68300781 8.29047852 141.68300781 8.29047852 141.7421875 6.86523438 C141.83606313 4.57701593 141.92174509 2.28879705 142 0 C152.88256981 -0.52236335 160.95644964 0.04844784 170.25 6.125 C176.24754966 12.39516556 180.11249681 19.18451225 180.14717102 27.91212463 C180.15790398 29.76457542 180.15790398 29.76457542 180.16885376 31.65444946 C180.17169404 33.02557348 180.17440577 34.39669777 180.17700195 35.76782227 C180.1832678 37.21015079 180.18991471 38.65247771 180.19691467 40.09480286 C180.21795063 44.8353259 180.22831957 49.57584924 180.23828125 54.31640625 C180.24232958 55.95033218 180.24644653 57.58425793 180.25063133 59.21818352 C180.26968538 66.8983258 180.28391353 74.57845847 180.2922433 82.25861984 C180.30200394 91.11119217 180.32829172 99.96351366 180.36874419 108.81599766 C180.39896396 115.66541677 180.41371789 122.51476424 180.41702431 129.36424869 C180.41936898 133.4514119 180.42825222 137.53830722 180.45348549 141.62539864 C180.47687283 145.47585879 180.48095708 149.32587675 180.47072411 153.17638969 C180.47023114 154.58319449 180.47648048 155.99002183 180.49028015 157.39675903 C180.59677572 168.90477697 178.90837406 177.78193689 170.859375 186.3125 C163.78944897 192.72890346 155.92482155 194.30449895 146.68994141 194.22705078 C145.31337372 194.22748886 145.31337372 194.22748886 143.90899658 194.22793579 C140.88975415 194.22654765 137.87076158 194.21101067 134.8515625 194.1953125 C132.75263606 194.19158054 130.65370786 194.18873443 128.55477905 194.18673706 C123.04086464 194.17911503 117.52705624 194.15947878 112.01318359 194.1373291 C106.38250156 194.11683988 100.75180234 194.10772876 95.12109375 194.09765625 C84.08068269 194.07623158 73.04035017 194.04211286 62 194 C62.77195206 193.25184021 63.54390411 192.50368042 64.33924866 191.73284912 C66.41502178 189.60082924 67.9736087 187.73890785 69.57202148 185.27441406 C73.87896917 179.43673808 78.2375564 174.87611271 85.50079346 173.18481445 C94.88863748 172.10580931 104.31009424 172.3738476 113.7388916 172.68133545 C119.12853173 172.84060377 124.52068435 172.87839045 129.91221619 172.93096924 C132.77303338 172.95919183 135.63018294 173.01977114 138.48976135 173.10760498 C139.78228317 173.1362262 141.07480499 173.16484741 142.40649414 173.19433594 C144.10401573 173.24554596 144.10401573 173.24554596 145.83583069 173.29779053 C150.5377626 172.85527603 153.67448756 171.47149475 156.85073853 167.94543457 C158.55068206 163.58866062 158.4176451 159.51103513 158.38818359 154.87304688 C158.39344055 153.8562233 158.39869751 152.83939972 158.40411377 151.79176331 C158.41730685 148.43393549 158.40857786 145.07658256 158.3984375 141.71875 C158.40045843 139.38374745 158.40337002 137.04874551 158.40713501 134.71374512 C158.41155744 129.82130928 158.40512974 124.92903782 158.39111328 120.03662109 C158.37402165 113.76511298 158.38386324 107.49399002 158.40183067 101.22249603 C158.41267057 96.40123594 158.40922117 91.58006717 158.4014473 86.75880432 C158.39944587 84.44633438 158.40190253 82.13385614 158.40888596 79.82139587 C158.41650359 76.58969147 158.4048912 73.35861106 158.38818359 70.12695312 C158.39729263 68.69295921 158.39729263 68.69295921 158.40658569 67.22999573 C158.3679978 60.58007525 158.3679978 60.58007525 155 55 C150.6538136 52.422835 147.46321164 51.62313642 142.43444824 51.61231995 C141.13067734 51.60241531 139.82690643 51.59251068 138.48362732 51.58230591 C137.05093289 51.58654344 135.61823938 51.59110124 134.18554688 51.59594727 C132.66731769 51.59024115 131.14909279 51.58327596 129.63087463 51.57514954 C125.51725985 51.55723104 121.40385852 51.55838383 117.29021645 51.56409192 C113.85325638 51.5671852 110.41633723 51.56108989 106.97938299 51.55505317 C98.87082347 51.54101431 90.76236933 51.54256434 82.65380859 51.55395508 C74.29330985 51.5654403 65.93313173 51.55135249 57.57267523 51.5245586 C50.38863286 51.50239843 43.20469112 51.4957648 36.02061701 51.50163502 C31.73245214 51.50500449 27.44449288 51.50259003 23.15635681 51.48538399 C19.12444312 51.46991139 15.09300449 51.47387352 11.06110954 51.49268913 C9.58329801 51.49637395 8.10545126 51.49326958 6.6276722 51.48280334 C4.60700157 51.46958691 2.58620812 51.48355307 0.56555176 51.49879456 C-0.56414787 51.49900384 -1.6938475 51.49921312 -2.85778046 51.49942875 C-7.58770978 52.25293009 -10.74069604 54.55167067 -13.85073853 58.12854004 C-15.55780751 62.39369669 -15.41768901 66.38932338 -15.38818359 70.94335938 C-15.39606903 72.43933403 -15.39606903 72.43933403 -15.40411377 73.9655304 C-15.41730517 77.25843011 -15.40857848 80.55084546 -15.3984375 83.84375 C-15.40045848 86.13391208 -15.40337011 88.42407353 -15.40713501 90.7142334 C-15.41155721 95.51251354 -15.40513049 100.31062607 -15.39111328 105.10888672 C-15.37402165 111.25932914 -15.38386336 117.40937881 -15.40183067 123.55980682 C-15.4126712 128.28842122 -15.40922089 133.0169425 -15.4014473 137.74555969 C-15.39944604 140.01337226 -15.40190193 142.28119328 -15.40888596 144.54899597 C-15.41650463 147.71843866 -15.4048898 150.8872453 -15.38818359 154.05664062 C-15.39425629 154.99393509 -15.40032898 155.93122955 -15.40658569 156.89692688 C-15.35827646 161.84410896 -15.02978274 164.88660801 -12 169 C-12 169.66 -12 170.32 -12 171 C-6.73830361 173.13312016 -2.03188742 173.33953325 3.5546875 173.4140625 C4.45623566 173.43342865 5.35778381 173.4527948 6.28665161 173.4727478 C9.14933996 173.53224296 12.01206918 173.57880817 14.875 173.625 C16.82293363 173.66320747 18.77085086 173.7022608 20.71875 173.7421875 C25.47903258 173.83791965 30.2393942 173.92206116 35 174 C35.05607422 175.28583984 35.05607422 175.28583984 35.11328125 176.59765625 C35.17902344 177.74105469 35.24476563 178.88445312 35.3125 180.0625 C35.37050781 181.18785156 35.42851562 182.31320312 35.48828125 183.47265625 C36.07147407 187.49268002 37.26456425 190.34767543 39 194 C31.63521223 194.10193078 24.27060832 194.17168759 16.90527344 194.21972656 C14.40292564 194.23976603 11.90062422 194.26700522 9.3984375 194.30175781 C5.78894563 194.3506124 2.18007621 194.37304645 -1.4296875 194.390625 C-2.53738495 194.41127014 -3.6450824 194.43191528 -4.78634644 194.45318604 C-13.14639465 194.45556806 -19.61882844 192.68844618 -26.75 188.3125 C-33.32589244 181.55394388 -37.2282297 174.24036555 -37.28088379 164.7026062 C-37.29230408 163.45799118 -37.30372437 162.21337616 -37.31549072 160.93104553 C-37.31798099 159.56454508 -37.32023128 158.19804418 -37.32226562 156.83154297 C-37.33153175 155.38216146 -37.34158238 153.93278478 -37.35235596 152.4834137 C-37.37851828 148.55540433 -37.39147753 144.62746321 -37.40037727 140.6993804 C-37.40625394 138.24053766 -37.41446647 135.78171325 -37.42338562 133.32287979 C-37.45071588 125.61604462 -37.47005754 117.90925173 -37.4777894 110.20237148 C-37.48673987 101.33158354 -37.52179259 92.46141364 -37.57979059 83.59081352 C-37.62315609 76.71751316 -37.64320501 69.84438583 -37.64587164 62.97095025 C-37.64795881 58.87357844 -37.65957951 54.77678833 -37.69551086 50.67956161 C-37.72870207 46.8198504 -37.73267542 42.96115088 -37.71523285 39.10134697 C-37.71370405 37.69375441 -37.72221865 36.28610486 -37.74214935 34.87865257 C-37.87908721 24.59598504 -36.14315071 16.00745647 -29.28964996 8.00222588 C-21.02740913 -0.05918566 -10.97246739 -0.56917698 0 0 Z " fill="#348BFE" transform="translate(137,414)"/>
<path d="M0 0 C1.91424275 0.00358442 3.82849086 0.00493298 5.74273682 0.00416565 C9.73361765 0.00883194 13.72368034 0.03348481 17.71435547 0.07397461 C22.81400737 0.12508028 27.91276763 0.13641196 33.01264572 0.13413906 C36.95736096 0.1349568 40.90188373 0.15144016 44.84653473 0.17314339 C46.72668252 0.18264458 48.60685193 0.18859176 50.4870224 0.19082451 C53.11639693 0.19737101 55.74484927 0.22371564 58.37402344 0.25561523 C59.13992294 0.25425568 59.90582245 0.25289612 60.69493103 0.25149536 C67.36599428 0.36911626 72.86503114 1.76083501 78.015625 6.25390625 C81.03119118 9.81775719 81.20838127 11.59480255 81.23925781 16.19165039 C81.24886536 17.34367447 81.2584729 18.49569855 81.26837158 19.68263245 C81.27262146 20.93462936 81.27687134 22.18662628 81.28125 23.4765625 C81.28695007 24.76195419 81.29265015 26.04734589 81.29852295 27.37168884 C81.30903793 30.09960322 81.31487589 32.82748812 81.31835938 35.55541992 C81.32381518 39.02975842 81.34777751 42.50369926 81.37633133 45.97791386 C81.39959851 49.31078806 81.40141815 52.64361139 81.40625 55.9765625 C81.4185968 57.2143898 81.4309436 58.4522171 81.44366455 59.72755432 C81.41612389 70.50200572 79.77340691 77.83417456 72.265625 85.7421875 C65.81118919 91.49355084 59.00148066 92.82052109 50.52734375 92.76171875 C49.27115234 92.77203125 48.01496094 92.78234375 46.72070312 92.79296875 C44.09573759 92.8085241 41.47052709 92.80091928 38.84570312 92.76953125 C30.62379857 92.81154555 30.62379857 92.81154555 23.671875 96.71484375 C22.44213282 98.01089313 21.24454353 99.33808529 20.078125 100.69140625 C18.7137947 102.1016919 17.34519603 103.50785908 15.97265625 104.91015625 C13.90454007 107.07128819 11.84679691 109.23873894 9.81445312 111.43359375 C9.14478516 112.12710938 8.47511719 112.820625 7.78515625 113.53515625 C7.1919458 114.16615234 6.59873535 114.79714844 5.98754883 115.44726562 C4.078125 116.69140625 4.078125 116.69140625 1.45581055 116.50195312 C-1.5333117 115.48296906 -2.36952272 114.40802273 -3.921875 111.69140625 C-5.10855314 108.01185028 -5.2354781 104.28152978 -5.484375 100.44140625 C-5.56816406 99.178125 -5.65195313 97.91484375 -5.73828125 96.61328125 C-5.79886719 95.6490625 -5.85945313 94.68484375 -5.921875 93.69140625 C-6.54118896 93.68206055 -7.16050293 93.67271484 -7.79858398 93.66308594 C-10.65293535 93.60881362 -13.50574608 93.52528288 -16.359375 93.44140625 C-17.33326172 93.42722656 -18.30714844 93.41304687 -19.31054688 93.3984375 C-25.82522512 93.18055528 -31.33615308 92.22145568 -36.921875 88.69140625 C-41.08161177 83.69972212 -42.03233904 79.68736284 -42.09887695 73.34716797 C-42.11171219 72.27860565 -42.12454742 71.21004333 -42.13777161 70.10910034 C-42.14515854 68.95805817 -42.15254547 67.80701599 -42.16015625 66.62109375 C-42.168228 65.42968781 -42.17629974 64.23828186 -42.18461609 63.01077271 C-42.19844642 60.48733979 -42.20917327 57.96388824 -42.21704102 55.44042969 C-42.23421642 51.60184727 -42.27810976 47.76413457 -42.32226562 43.92578125 C-42.33239635 41.4700584 -42.34091126 39.01432824 -42.34765625 36.55859375 C-42.36516434 35.41969696 -42.38267242 34.28080017 -42.40071106 33.10739136 C-42.37574807 23.82829153 -40.43861261 15.16719859 -33.82647705 8.27952576 C-23.48262726 -0.34551464 -12.73442722 -0.15849455 0 0 Z " fill="#35CE87" transform="translate(188.921875,480.30859375)"/>
<path d="M0 0 C3.16613757 1.91936837 5.83073098 3.90998854 8.25 6.75 C9.01183594 6.02683594 9.01183594 6.02683594 9.7890625 5.2890625 C14.90735083 0.5925058 18.5641218 -1.90871498 25.625 -2.5625 C31.76604627 -2.03309946 36.33897258 -0.65215273 40.5625 4 C46.12144678 10.68984999 46.67645078 17.13343344 46.54296875 25.49609375 C46.53872391 26.50720718 46.53447906 27.51832062 46.53010559 28.56007385 C46.51339754 31.76949401 46.47575953 34.97827165 46.4375 38.1875 C46.42244301 40.37173568 46.40875638 42.55598127 46.39648438 44.74023438 C46.36351973 50.0770681 46.31179158 55.41342535 46.25 60.75 C41.3 60.75 36.35 60.75 31.25 60.75 C31.23541748 59.56970215 31.22083496 58.3894043 31.20581055 57.17333984 C31.14767303 52.77850625 31.07044119 48.38417674 30.98754883 43.98974609 C30.95437207 42.09074101 30.92631769 40.19163904 30.90356445 38.29248047 C30.86988482 35.55654765 30.8175628 32.82149689 30.76171875 30.0859375 C30.75532883 29.24195404 30.7489389 28.39797058 30.74235535 27.52841187 C30.59523272 21.57950774 29.62049148 17.12049148 25.25 12.75 C21.11002433 12.5528583 18.17296433 12.44234522 14.25 13.75 C12.12340588 19.19252555 11.91570819 24.39083013 11.8359375 30.18359375 C11.81657135 31.06153091 11.7972052 31.93946808 11.7772522 32.8440094 C11.71787262 35.6250767 11.67123883 38.40618633 11.625 41.1875 C11.58678184 43.08269951 11.54772792 44.97788236 11.5078125 46.87304688 C11.41220571 51.49856129 11.32802245 56.12415692 11.25 60.75 C5.97 60.75 0.69 60.75 -4.75 60.75 C-4.75410889 59.47358643 -4.75821777 58.19717285 -4.76245117 56.88208008 C-4.78425079 52.13867006 -4.83854946 47.39608855 -4.90258789 42.65307617 C-4.92576059 40.60172476 -4.94016189 38.5502545 -4.94555664 36.4987793 C-4.95485143 33.5466105 -4.99585364 30.59630914 -5.04296875 27.64453125 C-5.0390361 26.72976517 -5.03510345 25.81499908 -5.03105164 24.87251282 C-5.13358477 20.38079385 -5.2974836 18.35099165 -8.0715332 14.66674805 C-11.58452705 12.15280085 -13.51884836 12.05762973 -17.75 12.75 C-20.11497439 14.61708505 -21.41030715 16.07061431 -22.75 18.75 C-22.86704964 20.10752296 -22.92677189 21.47025888 -22.95532227 22.83251953 C-22.97526749 23.67324005 -22.99521271 24.51396057 -23.01576233 25.38015747 C-23.04083107 26.74272171 -23.04083107 26.74272171 -23.06640625 28.1328125 C-23.08718735 29.06221649 -23.10796844 29.99162048 -23.12937927 30.94918823 C-23.19487646 33.9243821 -23.25376052 36.89966577 -23.3125 39.875 C-23.35568506 41.88933228 -23.39929934 43.90365541 -23.44335938 45.91796875 C-23.55055803 50.86188663 -23.65182501 55.80589503 -23.75 60.75 C-28.7 60.75 -33.65 60.75 -38.75 60.75 C-38.75 40.62 -38.75 20.49 -38.75 -0.25 C-34.13 -0.25 -29.51 -0.25 -24.75 -0.25 C-24.42 1.4 -24.09 3.05 -23.75 4.75 C-22.863125 3.96625 -21.97625 3.1825 -21.0625 2.375 C-14.45192755 -3.06446871 -7.59603183 -4.06037886 0 0 Z " fill="#35424C" transform="translate(722.75,477.25)"/>
<path d="M0 0 C4.95 0 9.9 0 15 0 C16.47046182 4.41138547 17.52826618 8.29492601 18.375 12.8125 C19.99750719 21.26910639 21.98187035 29.63039634 24 38 C26.92589339 30.69446745 29.00870438 23.19870264 31.125 15.625 C31.83347232 13.09564617 32.54501979 10.56720742 33.2578125 8.0390625 C33.5686377 6.92740723 33.87946289 5.81575195 34.19970703 4.67041016 C35 2 35 2 36 0 C40.29 0 44.58 0 49 0 C52.63 12.54 56.26 25.08 60 38 C61.77871742 34.44256515 62.6163427 31.78447569 63.4375 27.94921875 C63.69273437 26.77552734 63.94796875 25.60183594 64.2109375 24.39257812 C64.47132813 23.16990234 64.73171875 21.94722656 65 20.6875 C65.51885442 18.27431325 66.03963252 15.86153917 66.5625 13.44921875 C66.79066406 12.38018311 67.01882813 11.31114746 67.25390625 10.2097168 C68.05182608 6.7770427 69.03183007 3.38859477 70 0 C74.95 0 79.9 0 85 0 C83.20812585 7.2419512 81.41151096 14.48270393 79.6105957 21.72241211 C78.9992817 24.18270442 78.38923816 26.64331279 77.78051758 29.10424805 C76.90263661 32.65238022 76.02011214 36.19933055 75.13671875 39.74609375 C74.86784348 40.8370787 74.5989682 41.92806366 74.32194519 43.05210876 C72.79957806 49.14290382 71.06997686 55.07221567 69 61 C64.05 61 59.1 61 54 61 C51.09978275 52.60943436 48.71642737 44.09227706 46.32861328 35.54394531 C45.80260534 33.6639277 45.2724668 31.7850673 44.7421875 29.90625 C44.4313623 28.79572266 44.12053711 27.68519531 43.80029297 26.54101562 C43.24315706 24.08914707 43.24315706 24.08914707 42 23 C41.55346069 24.62010986 41.55346069 24.62010986 41.09790039 26.27294922 C39.99484278 30.27287597 38.88907151 34.27204827 37.7824707 38.27099609 C37.30353705 40.00321256 36.8253436 41.73563386 36.34790039 43.46826172 C35.66225701 45.95594394 34.97397148 48.44288194 34.28515625 50.9296875 C34.07157974 51.70682098 33.85800323 52.48395447 33.63795471 53.28463745 C32.11387171 58.77225659 32.11387171 58.77225659 31 61 C26.05 61 21.1 61 16 61 C13.92589317 54.97737224 12.14086481 48.9775129 10.625 42.79296875 C10.41439941 41.94632156 10.20379883 41.09967438 9.98681641 40.22737122 C9.32118387 37.54823416 8.660479 34.86791165 8 32.1875 C7.55762339 30.40291253 7.1149175 28.61840665 6.671875 26.83398438 C5.82506427 23.4214936 4.98001426 20.00857595 4.13671875 16.59521484 C2.76883802 11.06069741 1.38592646 5.53002894 0 0 Z " fill="#323F4A" transform="translate(352,477)"/>
<path d="M0 0 C6.30571984 3.60007409 10.67950201 8.03850602 13 15 C13.08669529 16.51907624 13.117694 18.04169001 13.11352539 19.56323242 C13.11344986 20.48396042 13.11337433 21.40468842 13.11329651 22.35331726 C13.10813522 23.34402725 13.10297394 24.33473724 13.09765625 25.35546875 C13.0962413 26.37224197 13.09482635 27.3890152 13.09336853 28.43659973 C13.08776707 31.68692964 13.07521432 34.93719088 13.0625 38.1875 C13.05748519 40.38997296 13.05292225 42.59244701 13.04882812 44.79492188 C13.03779716 50.19664107 13.02053154 55.59830889 13 61 C8.38 61 3.76 61 -1 61 C-1 58.69 -1 56.38 -1 54 C-1.66 54 -2.32 54 -3 54 C-3.26167969 54.61359375 -3.52335938 55.2271875 -3.79296875 55.859375 C-5.89710878 59.59098903 -8.99568572 60.78824898 -13 62 C-20.04548525 62.95636101 -26.55992842 63.02096841 -32.41015625 58.60546875 C-36.60974713 54.36460425 -38.20902739 49.91947408 -38.5 44 C-38.21174351 38.13578193 -36.64563583 33.67284031 -32.48046875 29.46484375 C-24.20264704 23.27902056 -11.92084795 23.65190007 -2 24 C-3.56878906 18.09182774 -3.56878906 18.09182774 -6.6875 12.9375 C-10.13937584 11.53809087 -13.37591439 11.33582495 -17 12 C-19.85157455 13.69747772 -19.85157455 13.69747772 -22 16 C-22.99 16.99 -23.98 17.98 -25 19 C-29.95 17.02 -29.95 17.02 -35 15 C-33.94090638 9.70453192 -32.71226186 6.82117907 -29 3 C-20.12323495 -2.76211065 -9.94523838 -3.70301429 0 0 Z " fill="#313E48" transform="translate(600,477)"/>
<path d="M0 0 C4.08948655 2.80034223 6.09965866 5.42718871 8.25 9.875 C8.75015625 10.88304687 9.2503125 11.89109375 9.765625 12.9296875 C12.41314854 19.51498338 12 24.64813672 12 32 C-1.2 32 -14.4 32 -28 32 C-25.92653106 41.21940614 -25.92653106 41.21940614 -20 46 C-16.80238831 47.59880585 -13.47853047 47.36854319 -10 47 C-5.9773783 45.43564712 -4.40850891 44.61276337 -2 41 C2.84659077 41.59104765 6.60748167 42.97944157 11 45 C8.16941448 52.13799828 4.80677289 55.46884137 -2 59 C-10.74274657 62.49709863 -18.93760203 61.66201861 -27.5234375 58.19140625 C-35.19875261 54.4990228 -39.37846197 48.3241014 -42.3125 40.5 C-44.49279216 29.91300442 -44.25236504 17.97203482 -38.55859375 8.63671875 C-29.25187881 -4.55679129 -14.08978618 -7.67242138 0 0 Z " fill="#313E48" transform="translate(881,479)"/>
<path d="M0 0 C6.07740113 5.01435737 9.40823745 10.33964271 11 18 C11 22.62 11 27.24 11 32 C-2.2 32 -15.4 32 -29 32 C-26.16293503 42.21589987 -26.16293503 42.21589987 -22.3125 45.6875 C-18.04437893 47.37864231 -14.53036655 47.69633412 -10 47 C-5.99992024 45.22218677 -4.20503637 43.20503637 -1 40 C2.63 41.65 6.26 43.3 10 45 C8.76587805 51.324875 5.06486296 54.43750314 0 58 C-6.58854412 61.81088906 -14.15452094 62.04808168 -21.4921875 60.4609375 C-30.63336757 57.66010455 -37.09822853 52.33484826 -41.64453125 43.9765625 C-43.66501515 39.02220728 -43.51370209 33.96622835 -43.5 28.6875 C-43.54253906 27.21506836 -43.54253906 27.21506836 -43.5859375 25.71289062 C-43.60981673 16.69250988 -40.74283601 9.89876575 -34.8125 3.125 C-24.923575 -5.92914561 -11.45759042 -6.36152782 0 0 Z " fill="#303D48" transform="translate(483,479)"/>
<path d="M0 0 C5.83080187 3.16580347 9.18980219 8.10815879 11.984375 14.0078125 C13.546875 19.3828125 13.546875 19.3828125 13.546875 33.3828125 C0.346875 33.3828125 -12.853125 33.3828125 -26.453125 33.3828125 C-23.61606003 43.59871237 -23.61606003 43.59871237 -19.765625 47.0703125 C-15.50115778 48.76000706 -11.97998618 49.08568928 -7.453125 48.3828125 C-4.62264072 47.09063489 -2.96480455 45.97977198 -0.953125 43.6328125 C0.546875 42.3828125 0.546875 42.3828125 2.796875 42.5078125 C6.17220787 43.58178205 9.31749652 44.92642613 12.546875 46.3828125 C11.31678184 52.68703996 7.66166059 55.89665915 2.546875 59.3828125 C-4.38902245 62.91924854 -11.76166042 63.52817696 -19.28515625 61.69140625 C-27.87343216 58.88347473 -33.16554704 55.04526553 -37.890625 47.3203125 C-40.63108386 41.45734689 -41.02509804 36.06357152 -41.078125 29.6953125 C-41.08900146 28.81673584 -41.09987793 27.93815918 -41.11108398 27.03295898 C-40.91179789 17.84768179 -37.58779041 10.81406688 -31.390625 4.109375 C-22.36294694 -3.93545101 -10.85690263 -4.38569796 0 0 Z " fill="#313D48" transform="translate(817.453125,477.6171875)"/>
<path d="M0 0 C5.39349248 0.371965 9.08768005 2.03444469 13.3125 5.375 C19.02808922 12.48086767 20.2078759 19.254131 20.015625 28.19140625 C20.00996521 29.19968979 20.00430542 30.20797333 19.99847412 31.24681091 C19.9762609 34.43587736 19.9260928 37.62377886 19.875 40.8125 C19.85491555 42.98761387 19.8366682 45.16274552 19.8203125 47.33789062 C19.77644547 52.64236915 19.70752308 57.94598775 19.625 63.25 C14.675 63.25 9.725 63.25 4.625 63.25 C4.595271 61.32752441 4.595271 61.32752441 4.56494141 59.36621094 C4.48885497 54.60998933 4.40014202 49.85407243 4.30761719 45.09814453 C4.26934005 43.03993751 4.23448496 40.98166388 4.203125 38.92333984 C4.15744722 35.96427612 4.09945698 33.00567043 4.0390625 30.046875 C4.02751129 29.12694763 4.01596008 28.20702026 4.00405884 27.25921631 C3.98418915 26.3986261 3.96431946 25.53803589 3.94384766 24.65136719 C3.93052399 23.89635925 3.91720032 23.14135132 3.9034729 22.36346436 C3.58519738 19.94791883 2.8810767 18.32881239 1.625 16.25 C-1.59793286 13.9479051 -4.49496324 13.77489346 -8.375 14.25 C-12.39178083 16.71484278 -14.02348927 18.79329461 -15.375 23.25 C-15.6964391 26.25471799 -15.74689346 29.24948136 -15.7890625 32.26953125 C-15.80842865 33.12810226 -15.8277948 33.98667328 -15.8477478 34.8712616 C-15.90731556 37.60157474 -15.95383734 40.33193057 -16 43.0625 C-16.03820079 44.91863773 -16.07725375 46.77475812 -16.1171875 48.63085938 C-16.21299827 53.17043144 -16.29711321 57.71008646 -16.375 62.25 C-21.325 62.25 -26.275 62.25 -31.375 62.25 C-31.375 42.45 -31.375 22.65 -31.375 2.25 C-26.755 2.25 -22.135 2.25 -17.375 2.25 C-17.045 3.9 -16.715 5.55 -16.375 7.25 C-15.85550781 6.82847656 -15.33601562 6.40695312 -14.80078125 5.97265625 C-9.64375232 1.92138584 -6.53838973 0.48432517 0 0 Z " fill="#303D47" transform="translate(654.375,474.75)"/>
<path d="M0 0 C3.7505655 2.86756523 6.22138582 6.57765104 8.25 10.8125 C8.25 11.4725 8.25 12.1325 8.25 12.8125 C6.29350603 13.65014268 4.33474444 14.48249059 2.375 15.3125 C0.73917969 16.00859375 0.73917969 16.00859375 -0.9296875 16.71875 C-3.75 17.8125 -3.75 17.8125 -5.75 17.8125 C-6.0903125 16.389375 -6.0903125 16.389375 -6.4375 14.9375 C-7.43994941 11.74494946 -7.43994941 11.74494946 -9.8125 10.4375 C-14.43458831 9.45407695 -19.2491163 8.48258091 -23.59375 10.79296875 C-26.4892233 13.09941194 -28.45065701 15.37894206 -29.75 18.8125 C-30.5782383 27.17192843 -30.75374058 34.78021594 -25.75 41.8125 C-22.82395819 44.34313075 -21.16363148 44.76737657 -17.3125 45.1875 C-13.36740588 44.77222693 -11.05690528 43.99205121 -7.75 41.8125 C-5.86868431 39.26461147 -5.86868431 39.26461147 -4.75 36.8125 C-2.95763933 37.28906412 -1.16613103 37.76883498 0.625 38.25 C1.62273438 38.51683594 2.62046875 38.78367187 3.6484375 39.05859375 C6.25 39.8125 6.25 39.8125 8.25 40.8125 C7.59938654 46.34271445 5.01346291 50.04903709 1.125 53.9375 C-6.39777184 58.84365555 -13.76881187 61.05881652 -22.75 59.8125 C-31.47470687 57.62809191 -37.6743337 52.77849075 -43.125 45.75 C-48.28339196 36.42521454 -48.60069667 23.76087454 -45.875 13.52734375 C-41.92417317 5.11884059 -35.38993396 -0.87404079 -26.75 -4.1875 C-17.49794752 -6.97426279 -8.04232787 -5.14153143 0 0 Z " fill="#323E49" transform="translate(547.75,480.1875)"/>
<path d="M0 0 C4.95 0 9.9 0 15 0 C15 6.27 15 12.54 15 19 C19.95 19 24.9 19 30 19 C30 22.96 30 26.92 30 31 C25.38 31 20.76 31 16 31 C16.33 41.89 16.66 52.78 17 64 C20.14930893 65.04976964 22.38814456 65.10131595 25.6875 65.0625 C26.68136719 65.05347656 27.67523437 65.04445313 28.69921875 65.03515625 C29.45847656 65.02355469 30.21773437 65.01195312 31 65 C31.02685095 67.47923801 31.04676547 69.9581884 31.0625 72.4375 C31.07087891 73.14455078 31.07925781 73.85160156 31.08789062 74.58007812 C31.09653588 76.38693559 31.05220011 78.19387603 31 80 C28.77128275 82.22871725 23.31840928 81.31162502 20.2253418 81.31469727 C14.75145162 81.21139325 10.2767356 80.71514405 6 77 C0.84197842 71.26886492 -0.14865213 66.45947282 -0.09765625 58.83203125 C-0.0962413 58.03721848 -0.09482635 57.2424057 -0.09336853 56.42350769 C-0.08777378 53.88646675 -0.07522228 51.34951425 -0.0625 48.8125 C-0.05748432 47.09179815 -0.05292153 45.37109492 -0.04882812 43.65039062 C-0.03780607 39.4335597 -0.02054506 35.21679484 0 31 C-2.97 31 -5.94 31 -9 31 C-9 27.04 -9 23.08 -9 19 C-6.03 19 -3.06 19 0 19 C0 12.73 0 6.46 0 0 Z " fill="#34414B" transform="translate(905,458)"/>
<path d="M0 0 C1.80078125 1.13671875 1.80078125 1.13671875 3.3125 2.6875 C3.82425781 3.18636719 4.33601563 3.68523437 4.86328125 4.19921875 C6.42166282 6.66799505 6.32975417 8.11214181 6 11 C4.46366882 13.14433289 4.46366882 13.14433289 2.28393555 15.29956055 C1.47276779 16.11357834 0.66160004 16.92759613 -0.17414856 17.76628113 C-1.06156235 18.63102554 -1.94897614 19.49576996 -2.86328125 20.38671875 C-3.76620407 21.28493851 -4.66912689 22.18315826 -5.59941101 23.1085968 C-8.00119461 25.49262848 -10.41347265 27.86497469 -12.83117676 30.23278809 C-14.80052694 32.16675975 -16.75869909 34.1118341 -18.71639729 36.05758953 C-22.76433798 40.07987978 -26.8209333 44.09356504 -30.89575195 48.08862305 C-31.61745071 48.7974614 -32.33914948 49.50629974 -33.0827179 50.23661804 C-37.20832526 54.0310631 -37.20832526 54.0310631 -40.89331055 53.88647461 C-44.55450495 52.84177544 -46.06427104 51.52824722 -48.70703125 48.81640625 C-49.54041016 47.97142578 -50.37378906 47.12644531 -51.23242188 46.25585938 C-52.08384766 45.36705078 -52.93527344 44.47824219 -53.8125 43.5625 C-54.68326172 42.67755859 -55.55402344 41.79261719 -56.45117188 40.88085938 C-63.82158599 33.33810511 -63.82158599 33.33810511 -64.375 29.1875 C-64 26 -64 26 -61.9375 23.0625 C-59 21 -59 21 -55.6875 21.0234375 C-51.27651783 22.19160015 -49.0267549 24.27844996 -46.0625 27.5625 C-45.56943359 28.08263672 -45.07636719 28.60277344 -44.56835938 29.13867188 C-43.36467071 30.41247833 -42.18027648 31.70447049 -41 33 C-37.51345524 31.5158627 -35.35808928 29.53785948 -32.75 26.8125 C-30.04208348 24.03885735 -27.3418239 21.36894585 -24.375 18.875 C-21.53155842 16.46812723 -18.92014802 13.91265291 -16.33984375 11.23046875 C-15.67871582 10.54807129 -15.01758789 9.86567383 -14.33642578 9.16259766 C-13.00224297 7.77820193 -11.67866615 6.38349455 -10.36669922 4.97802734 C-9.74682129 4.33687988 -9.12694336 3.69573242 -8.48828125 3.03515625 C-7.66130737 2.15935913 -7.66130737 2.15935913 -6.81762695 1.26586914 C-4.41523095 -0.40725689 -2.86794756 -0.31229282 0 0 Z " fill="#FAF8EF" transform="translate(240,501)"/>
<path d="M0 0 C3.52488367 1.96667329 5.70121477 4.10364431 7 8 C7.13204354 10.44289656 7.21201999 12.85655075 7.23828125 15.30078125 C7.246353 16.01477585 7.25442474 16.72877045 7.26274109 17.46440125 C7.2765588 18.9748595 7.28729129 20.48534868 7.29516602 21.99584961 C7.30668252 23.53500565 7.32712948 25.07412186 7.35668945 26.61303711 C7.39950509 28.84255987 7.41555322 31.07089768 7.42578125 33.30078125 C7.44328934 33.98223709 7.46079742 34.66369293 7.47883606 35.36579895 C7.45636139 40.36341512 6.13696311 43.16199599 3 47 C-0.6921187 49.46141247 -3.71354805 49.68650207 -8 49 C-11.55590406 46.83553666 -13.52258512 44.86207133 -15 41 C-15.2147043 38.49607877 -15.32776954 36.10579964 -15.3359375 33.6015625 C-15.3459227 32.53269302 -15.3459227 32.53269302 -15.35610962 31.44223022 C-15.36621288 29.93774996 -15.37092736 28.43322509 -15.37060547 26.92871094 C-15.37497289 24.63921393 -15.41129599 22.35165548 -15.44921875 20.0625 C-15.45508884 18.59636071 -15.45905695 17.13021233 -15.4609375 15.6640625 C-15.47530853 14.98574371 -15.48967957 14.30742493 -15.50448608 13.60855103 C-15.45716315 8.63019393 -14.1212439 5.82583594 -11 2 C-7.30751438 -0.46165708 -4.28488597 -0.80846905 0 0 Z " fill="#348BFE" transform="translate(263,391)"/>
<path d="M0 0 C2.8100346 1.79363911 4.50940468 3.01880935 6 6 C6.2843628 11.22543647 6.31374419 16.45188321 6.35009766 21.68432617 C6.36664961 23.43120656 6.39392995 25.17801943 6.43212891 26.92456055 C6.48698252 29.44615726 6.50878326 31.96616775 6.5234375 34.48828125 C6.54610687 35.26553055 6.56877625 36.04277985 6.59213257 36.84358215 C6.57623781 40.93676375 6.20434956 42.74797164 3.59228516 45.96948242 C-0.46590161 49.14822977 -2.81180552 49.51881945 -8 49 C-10.97672584 47.22719439 -13.42804007 45.14391985 -15 42 C-15.28383438 37.07780879 -15.3137567 32.15469968 -15.35009766 27.22509766 C-15.36662862 25.58204964 -15.39388129 23.93907269 -15.43212891 22.29638672 C-15.4871218 19.92117204 -15.50880554 17.54764204 -15.5234375 15.171875 C-15.54610687 14.44353455 -15.56877625 13.71519409 -15.59213257 12.96478271 C-15.57600051 9.03756724 -15.02891193 6.56171511 -12.59228516 3.55175781 C-8.69479591 -0.28479875 -5.35985189 -0.77009366 0 0 Z " fill="#328AFE" transform="translate(161,391)"/>
<path d="M0 0 C1.75570312 0.01353516 1.75570312 0.01353516 3.546875 0.02734375 C4.43890625 0.03894531 5.3309375 0.05054688 6.25 0.0625 C6.03414812 6.21427851 4.90886817 9.19949477 0.72265625 13.71484375 C-2.41971913 16.5904923 -5.46489872 16.40177583 -9.546875 16.3359375 C-11.75 16.0625 -11.75 16.0625 -14.375 14.5 C-15.75 12.0625 -15.75 12.0625 -15.75 8.5625 C-14.67566727 4.80233546 -13.85608389 3.3698766 -10.75 1.0625 C-7.19558007 -0.17628417 -3.733834 -0.03733834 0 0 Z " fill="#F8F5F0" transform="translate(591.75,510.9375)"/>
<path d="M0 0 C4.40296534 1.43943098 5.66362721 2.37210412 7.875 6.5 C9 10 9 10 9 13 C0.75 13 -7.5 13 -16 13 C-14.95763751 6.74582506 -14.51143164 5.86694141 -10 2 C-6.25816125 -0.49455917 -4.43756964 -0.37606522 0 0 Z " fill="#F8F6F1" transform="translate(869,488)"/>
<path d="M0 0 C2.59109733 2.08727285 3.87920178 3.78231447 5.25 6.8125 C5.25 8.4625 5.25 10.1125 5.25 11.8125 C-3 11.8125 -11.25 11.8125 -19.75 11.8125 C-18.60406378 6.08281889 -16.61240521 2.91159715 -11.875 -0.5625 C-7.64310585 -1.80717475 -4.04994387 -1.7488394 0 0 Z " fill="#FAF8F2" transform="translate(473.75,489.1875)"/>
<path d="M0 0 C4.14833175 1.79132507 6.14086598 3.89033531 8 8 C8 9.65 8 11.3 8 13 C-0.25 13 -8.5 13 -17 13 C-14.84256209 5.44896733 -14.69027681 5.03061274 -9 1 C-5.93570224 -0.53214888 -3.3834358 -0.22938548 0 0 Z " fill="#FAF8F2" transform="translate(808,488)"/>
<path d="M0 0 C4.29 0 8.58 0 13 0 C13 0.33 13 0.66 13 1 C9.37 1 5.74 1 2 1 C2 20.14 2 39.28 2 59 C5.63 59 9.26 59 13 59 C12.98952637 57.94611084 12.97905273 56.89222168 12.96826172 55.80639648 C12.93188456 51.87218665 12.90903541 47.93799151 12.89013672 44.00366211 C12.88011935 42.30539443 12.86650162 40.60714383 12.84912109 38.90893555 C12.82468421 36.45877858 12.8134741 34.00885095 12.8046875 31.55859375 C12.79436493 30.80726669 12.78404236 30.05593964 12.77340698 29.28184509 C12.77240035 24.482514 13.4815623 20.55794015 15 16 C15.93425257 18.80275772 16.09949044 20.3188539 16.02172852 23.19604492 C15.99158409 24.45701241 15.99158409 24.45701241 15.96083069 25.74345398 C15.92027809 27.09827629 15.92027809 27.09827629 15.87890625 28.48046875 C15.85529526 29.40845779 15.83168427 30.33644684 15.80735779 31.29255676 C15.73075991 34.25769495 15.64671871 37.22256942 15.5625 40.1875 C15.50927545 42.1972527 15.45653507 44.20701829 15.40429688 46.21679688 C15.27514994 51.14469838 15.13932693 56.07237623 15 61 C10.05 61 5.1 61 0 61 C0 40.87 0 20.74 0 0 Z " fill="#1B2A36" transform="translate(684,477)"/>
<path d="M0 0 C0.66 0.33 1.32 0.66 2 1 C2 16.18 2 31.36 2 47 C-2.95 47 -7.9 47 -13 47 C-13.33 32.81 -13.66 18.62 -14 4 C-12 6 -12 6 -11.77294922 9.80712891 C-11.77326654 11.4469742 -11.78460319 13.08684017 -11.8046875 14.7265625 C-11.8075174 15.58937836 -11.81034729 16.45219421 -11.81326294 17.34115601 C-11.82447667 20.1025772 -11.84958316 22.8636765 -11.875 25.625 C-11.88502827 27.49478699 -11.89415438 29.36457905 -11.90234375 31.234375 C-11.92441988 35.82304109 -11.95895766 40.41146593 -12 45 C-8.04 45 -4.08 45 0 45 C0 30.15 0 15.3 0 0 Z " fill="#2D353F" transform="translate(767,491)"/>
<path d="M0 0 C0.93425257 2.80275772 1.09949044 4.3188539 1.02172852 7.19604492 C0.99158409 8.45701241 0.99158409 8.45701241 0.96083069 9.74345398 C0.92027809 11.09827629 0.92027809 11.09827629 0.87890625 12.48046875 C0.85529526 13.40845779 0.83168427 14.33644684 0.80735779 15.29255676 C0.73075991 18.25769495 0.64671871 21.22256942 0.5625 24.1875 C0.50927545 26.1972527 0.45653507 28.20701829 0.40429688 30.21679688 C0.27514994 35.14469838 0.13932693 40.07237623 0 45 C-4.95 45 -9.9 45 -15 45 C-15 44.34 -15 43.68 -15 43 C-10.71 43 -6.42 43 -2 43 C-2.01047363 41.94611084 -2.02094727 40.89222168 -2.03173828 39.80639648 C-2.06811544 35.87218665 -2.09096459 31.93799151 -2.10986328 28.00366211 C-2.11988065 26.30539443 -2.13349838 24.60714383 -2.15087891 22.90893555 C-2.17531579 20.45877858 -2.1865259 18.00885095 -2.1953125 15.55859375 C-2.20563507 14.80726669 -2.21595764 14.05593964 -2.22659302 13.28184509 C-2.22759965 8.482514 -1.5184377 4.55794015 0 0 Z " fill="#222F3B" transform="translate(699,493)"/>
<path d="M0 0 C2.64590014 -0.02684679 5.29153096 -0.04676357 7.9375 -0.0625 C8.69224609 -0.07087891 9.44699219 -0.07925781 10.22460938 -0.08789062 C12.14994313 -0.09652441 14.07535581 -0.05224333 16 0 C17 1 17 1 17.11352539 2.76586914 C17.10828857 3.51473389 17.10305176 4.26359863 17.09765625 5.03515625 C17.09443359 5.84404297 17.09121094 6.65292969 17.08789062 7.48632812 C17.07951172 8.33646484 17.07113281 9.18660156 17.0625 10.0625 C17.05798828 10.91650391 17.05347656 11.77050781 17.04882812 12.65039062 C17.03700373 14.76695663 17.01906769 16.88348685 17 19 C21.62 19 26.24 19 31 19 C30.67 20.32 30.34 21.64 30 23 C30 22.34 30 21.68 30 21 C25.05 21 20.1 21 15 21 C15 14.73 15 8.46 15 2 C10.38 2 5.76 2 1 2 C0.67 1.34 0.34 0.68 0 0 Z " fill="#DDDFDE" transform="translate(905,456)"/>
<path d="M0 0 C4.95 0 9.9 0 15 0 C15 3.96 15 7.92 15 12 C10.38 12 5.76 12 1 12 C1 11.34 1 10.68 1 10 C4.96 10 8.92 10 13 10 C13 7.03 13 4.06 13 1 C8.71 1 4.42 1 0 1 C0 0.67 0 0.34 0 0 Z " fill="#1E2834" transform="translate(920,477)"/>
<path d="M0 0 C2.45823172 3.68734758 3.01242616 6.69699971 4 11 C3.236875 11.12375 2.47375 11.2475 1.6875 11.375 C-1.20267136 11.88102792 -1.20267136 11.88102792 -4 14 C-3.52372025 12.04096255 -3.04388577 10.08278903 -2.5625 8.125 C-2.29566406 7.03445313 -2.02882813 5.94390625 -1.75390625 4.8203125 C-1 2 -1 2 0 0 Z " fill="#EDEDEA" transform="translate(394,498)"/>
<path d="M0 0 C0.66 0.33 1.32 0.66 2 1 C1.360625 1.598125 0.72125 2.19625 0.0625 2.8125 C-2.20310389 4.90810337 -2.20310389 4.90810337 -3 8 C-4.051875 8.61875 -4.051875 8.61875 -5.125 9.25 C-9.00626274 11.61250776 -11.884161 14.72253246 -15 18 C-15 15 -15 15 -13.62304688 13.2824707 C-12.99462891 12.66976318 -12.36621094 12.05705566 -11.71875 11.42578125 C-11.04199219 10.75869141 -10.36523438 10.09160156 -9.66796875 9.40429688 C-8.95253906 8.71400391 -8.23710937 8.02371094 -7.5 7.3125 C-6.42685547 6.2596582 -6.42685547 6.2596582 -5.33203125 5.18554688 C-3.56120423 3.45013639 -1.78376544 1.7220927 0 0 Z " fill="#FDFBFC" transform="translate(232,504)"/>
<path d="M0 0 C0.66 0.33 1.32 0.66 2 1 C1.38125 1.2475 0.7625 1.495 0.125 1.75 C-2.42139034 3.24787667 -2.82683417 4.34082412 -4 7 C-4.97581759 8.35113205 -5.97029741 9.68946944 -7 11 C-7.99 10.67 -8.98 10.34 -10 10 C-8.90033225 8.70450101 -7.79508199 7.41373929 -6.6875 6.125 C-6.07261719 5.40570313 -5.45773437 4.68640625 -4.82421875 3.9453125 C-3 2 -3 2 0 0 Z " fill="#212C38" transform="translate(791,478)"/>
<path d="M0 0 C1.0354051 3.1848935 0.94040666 5.13031874 0.00390625 8.328125 C-0.33930664 9.52695312 -0.33930664 9.52695312 -0.68945312 10.75 C-0.93630859 11.575 -1.18316406 12.4 -1.4375 13.25 C-1.68048828 14.09046875 -1.92347656 14.9309375 -2.17382812 15.796875 C-2.77373949 17.86715734 -3.38570819 19.93393897 -4 22 C-5.22381056 18.32856832 -4.59631158 16.80996393 -3.5625 13.125 C-2.48786151 9.27943266 -1.81553081 5.99929197 -2 2 C-1.34 2 -0.68 2 0 2 C0 1.34 0 0.68 0 0 Z " fill="#14212D" transform="translate(430,496)"/>
<path d="M0 0 C0.0825 0.61875 0.165 1.2375 0.25 1.875 C0.81258459 4.18437567 0.81258459 4.18437567 3.0625 5.25 C3.701875 5.4975 4.34125 5.745 5 6 C4.34 8.31 3.68 10.62 3 13 C1.24905885 10.37358828 0.54725362 8.89308789 -0.1875 5.9375 C-0.36667969 5.24527344 -0.54585938 4.55304688 -0.73046875 3.83984375 C-1 2 -1 2 0 0 Z " fill="#F3F2F0" transform="translate(410,505)"/>
<path d="M0 0 C2.97 0.99 5.94 1.98 9 3 C9 3.99 9 4.98 9 6 C3.50847458 5.38983051 3.50847458 5.38983051 1.125 3.5625 C0 2 0 2 0 0 Z " fill="#DDF2E6" transform="translate(193,549)"/>
<path d="M0 0 C1.32 0 2.64 0 4 0 C5.484375 1.53125 5.484375 1.53125 6.75 3.5 C7.39195312 4.47453125 7.39195312 4.47453125 8.046875 5.46875 C8.36140625 5.9740625 8.6759375 6.479375 9 7 C6 7 6 7 4.39453125 5.46875 C3.87246094 4.8190625 3.35039062 4.169375 2.8125 3.5 C2.28269531 2.8503125 1.75289062 2.200625 1.20703125 1.53125 C0.80871094 1.0259375 0.41039062 0.520625 0 0 Z " fill="#DEF2E6" transform="translate(179,536)"/>
<path d="M0 0 C1.45742463 -0.08096803 2.91612807 -0.13917774 4.375 -0.1875 C5.18710937 -0.22230469 5.99921875 -0.25710938 6.8359375 -0.29296875 C7.55007813 -0.19628906 8.26421875 -0.09960938 9 0 C9.66 0.99 10.32 1.98 11 3 C7.7 3 4.4 3 1 3 C0.67 2.01 0.34 1.02 0 0 Z " fill="#3F4A53" transform="translate(582,475)"/>
<path d="M0 0 C2.475 0.495 2.475 0.495 5 1 C4.34 3.31 3.68 5.62 3 8 C0.4345406 5.4345406 0.45953913 3.52313332 0 0 Z " fill="#F1F1F0" transform="translate(374,509)"/>
</svg>
