<?xml version="1.0" encoding="utf-8" ?>
<svg baseProfile="tiny" height="100%" version="1.2" width="100%" xmlns="http://www.w3.org/2000/svg" xmlns:ev="http://www.w3.org/2001/xml-events" xmlns:xlink="http://www.w3.org/1999/xlink"><defs /><path d="M 168,481 L 167,482 L 165,482 L 164,483 L 163,483 L 162,484 L 161,484 L 160,485 L 159,485 L 152,492 L 152,493 L 150,495 L 150,496 L 149,497 L 149,499 L 148,500 L 148,503 L 147,504 L 147,560 L 148,561 L 148,563 L 149,564 L 149,565 L 154,570 L 156,570 L 157,571 L 160,571 L 161,572 L 182,572 L 184,574 L 184,589 L 185,590 L 185,592 L 189,596 L 192,596 L 206,582 L 207,582 L 217,572 L 247,572 L 248,571 L 251,571 L 252,570 L 253,570 L 254,569 L 255,569 L 256,568 L 257,568 L 265,560 L 265,559 L 266,558 L 266,557 L 267,556 L 267,555 L 268,554 L 268,552 L 269,551 L 269,491 L 268,490 L 268,489 L 267,488 L 267,487 L 264,484 L 263,484 L 262,483 L 261,483 L 260,482 L 258,482 L 257,481 Z" fill="black" /><path d="M 352,476 L 352,478 L 353,479 L 353,482 L 354,483 L 354,486 L 355,487 L 355,489 L 356,490 L 356,493 L 357,494 L 357,497 L 358,498 L 358,501 L 359,502 L 359,505 L 360,506 L 360,509 L 361,510 L 361,513 L 362,514 L 362,517 L 363,518 L 363,521 L 364,522 L 364,525 L 365,526 L 365,529 L 366,530 L 366,533 L 367,534 L 367,537 L 382,537 L 383,536 L 383,533 L 384,532 L 384,530 L 385,529 L 385,526 L 386,525 L 386,523 L 387,522 L 387,519 L 388,518 L 388,516 L 389,515 L 389,512 L 390,511 L 390,508 L 391,507 L 391,505 L 392,504 L 392,502 L 393,501 L 393,499 L 394,498 L 395,499 L 395,501 L 396,502 L 396,505 L 397,506 L 397,508 L 398,509 L 398,512 L 399,513 L 399,515 L 400,516 L 400,519 L 401,520 L 401,523 L 402,524 L 402,526 L 403,527 L 403,530 L 404,531 L 404,534 L 405,535 L 405,537 L 420,537 L 421,536 L 421,533 L 422,532 L 422,529 L 423,528 L 423,525 L 424,524 L 424,522 L 425,521 L 425,518 L 426,517 L 426,514 L 427,513 L 427,510 L 428,509 L 428,506 L 429,505 L 429,502 L 430,501 L 430,498 L 431,497 L 431,495 L 432,494 L 432,491 L 433,490 L 433,487 L 434,486 L 434,483 L 435,482 L 435,479 L 436,478 L 436,476 L 422,476 L 422,477 L 421,478 L 421,482 L 420,483 L 420,487 L 419,488 L 419,492 L 418,493 L 418,497 L 417,498 L 417,501 L 416,502 L 416,505 L 415,506 L 415,509 L 414,510 L 414,513 L 413,514 L 413,516 L 412,517 L 411,516 L 411,514 L 410,513 L 410,510 L 409,509 L 409,507 L 408,506 L 408,503 L 407,502 L 407,500 L 406,499 L 406,496 L 405,495 L 405,493 L 404,492 L 404,490 L 403,489 L 403,486 L 402,485 L 402,483 L 401,482 L 401,479 L 400,478 L 400,476 L 388,476 L 387,477 L 387,480 L 386,481 L 386,483 L 385,484 L 385,487 L 384,488 L 384,491 L 383,492 L 383,494 L 382,495 L 382,498 L 381,499 L 381,502 L 380,503 L 380,505 L 379,506 L 379,509 L 378,510 L 378,512 L 377,513 L 377,516 L 376,517 L 375,516 L 375,514 L 374,513 L 374,510 L 373,509 L 373,506 L 372,505 L 372,501 L 371,500 L 371,497 L 370,496 L 370,492 L 369,491 L 369,487 L 368,486 L 368,482 L 367,481 L 367,477 L 366,476 Z" fill="black" /><path d="M 860,475 L 859,476 L 856,476 L 855,477 L 854,477 L 853,478 L 852,478 L 851,479 L 850,479 L 843,486 L 843,487 L 841,489 L 841,491 L 840,492 L 840,493 L 839,494 L 839,497 L 838,498 L 838,517 L 839,518 L 839,520 L 840,521 L 840,523 L 841,524 L 841,525 L 843,527 L 843,528 L 849,534 L 850,534 L 852,536 L 854,536 L 855,537 L 856,537 L 857,538 L 860,538 L 861,539 L 873,539 L 874,538 L 877,538 L 878,537 L 879,537 L 880,536 L 881,536 L 882,535 L 883,535 L 888,530 L 888,529 L 890,527 L 890,526 L 891,525 L 891,523 L 889,523 L 888,522 L 886,522 L 885,521 L 884,521 L 883,520 L 881,520 L 880,519 L 879,519 L 879,520 L 874,525 L 873,525 L 872,526 L 870,526 L 869,527 L 865,527 L 864,526 L 861,526 L 859,524 L 858,524 L 855,521 L 855,520 L 854,519 L 854,518 L 853,517 L 853,515 L 852,514 L 852,511 L 853,510 L 892,510 L 892,500 L 891,499 L 891,494 L 890,493 L 890,491 L 889,490 L 889,489 L 888,488 L 888,487 L 887,486 L 887,485 L 881,479 L 880,479 L 879,478 L 878,478 L 877,477 L 876,477 L 875,476 L 872,476 L 871,475 Z" fill="black" /><path d="M 798,475 L 797,476 L 795,476 L 794,477 L 792,477 L 791,478 L 790,478 L 787,481 L 786,481 L 783,484 L 783,485 L 781,487 L 781,488 L 780,489 L 780,490 L 779,491 L 779,492 L 778,493 L 778,495 L 777,496 L 777,502 L 776,503 L 776,512 L 777,513 L 777,517 L 778,518 L 778,521 L 779,522 L 779,523 L 780,524 L 780,525 L 781,526 L 781,527 L 788,534 L 789,534 L 791,536 L 792,536 L 793,537 L 795,537 L 796,538 L 799,538 L 800,539 L 812,539 L 813,538 L 815,538 L 816,537 L 818,537 L 819,536 L 820,536 L 823,533 L 824,533 L 825,532 L 825,531 L 828,528 L 828,527 L 829,526 L 829,525 L 830,524 L 829,523 L 827,523 L 826,522 L 824,522 L 823,521 L 822,521 L 821,520 L 820,520 L 819,519 L 818,519 L 817,520 L 817,521 L 813,525 L 812,525 L 811,526 L 809,526 L 808,527 L 803,527 L 802,526 L 800,526 L 799,525 L 798,525 L 793,520 L 793,519 L 792,518 L 792,517 L 791,516 L 791,513 L 790,512 L 790,511 L 791,510 L 831,510 L 831,508 L 830,507 L 830,497 L 829,496 L 829,493 L 828,492 L 828,490 L 827,489 L 827,488 L 826,487 L 826,486 L 823,483 L 823,482 L 822,481 L 821,481 L 818,478 L 817,478 L 816,477 L 814,477 L 813,476 L 811,476 L 810,475 Z" fill="black" /><path d="M 709,475 L 708,476 L 706,476 L 705,477 L 704,477 L 702,479 L 701,479 L 698,482 L 697,481 L 697,476 L 684,476 L 684,537 L 698,537 L 698,499 L 699,498 L 699,495 L 700,494 L 700,493 L 704,489 L 705,489 L 706,488 L 711,488 L 712,489 L 713,489 L 716,492 L 716,493 L 717,494 L 717,496 L 718,497 L 718,537 L 733,537 L 733,499 L 734,498 L 734,495 L 735,494 L 735,493 L 739,489 L 740,489 L 741,488 L 745,488 L 746,489 L 748,489 L 751,492 L 751,493 L 752,494 L 752,495 L 753,496 L 753,537 L 768,537 L 768,492 L 767,491 L 767,488 L 766,487 L 766,486 L 765,485 L 765,484 L 763,482 L 763,481 L 762,480 L 761,480 L 759,478 L 758,478 L 756,476 L 754,476 L 753,475 L 743,475 L 742,476 L 740,476 L 739,477 L 738,477 L 736,479 L 735,479 L 731,483 L 731,484 L 730,485 L 728,483 L 728,482 L 724,478 L 723,478 L 722,477 L 721,477 L 720,476 L 718,476 L 717,475 Z" fill="black" /><path d="M 649,475 L 648,476 L 646,476 L 645,477 L 644,477 L 643,478 L 642,478 L 638,482 L 637,482 L 636,481 L 636,476 L 622,476 L 622,537 L 637,537 L 637,501 L 638,500 L 638,496 L 639,495 L 639,494 L 640,493 L 640,492 L 643,489 L 644,489 L 645,488 L 648,488 L 649,487 L 650,488 L 653,488 L 658,493 L 658,496 L 659,497 L 659,537 L 673,537 L 673,491 L 672,490 L 672,488 L 671,487 L 671,485 L 669,483 L 669,482 L 665,478 L 664,478 L 663,477 L 662,477 L 661,476 L 660,476 L 659,475 Z" fill="black" /><path d="M 581,475 L 580,476 L 578,476 L 577,477 L 575,477 L 573,479 L 572,479 L 567,484 L 567,485 L 566,486 L 566,487 L 565,488 L 565,490 L 564,491 L 565,491 L 566,492 L 567,492 L 568,493 L 570,493 L 571,494 L 573,494 L 574,495 L 576,495 L 576,494 L 577,493 L 577,492 L 580,489 L 581,489 L 582,488 L 585,488 L 586,487 L 588,487 L 589,488 L 591,488 L 592,489 L 593,489 L 596,492 L 596,493 L 597,494 L 597,497 L 598,498 L 598,499 L 596,501 L 584,501 L 583,502 L 577,502 L 576,503 L 573,503 L 572,504 L 571,504 L 570,505 L 569,505 L 564,510 L 564,511 L 563,512 L 563,514 L 562,515 L 562,526 L 563,527 L 563,529 L 564,530 L 564,531 L 569,536 L 570,536 L 571,537 L 572,537 L 573,538 L 577,538 L 578,539 L 583,539 L 584,538 L 587,538 L 588,537 L 590,537 L 592,535 L 593,535 L 597,531 L 598,532 L 598,535 L 599,536 L 599,537 L 612,537 L 612,491 L 611,490 L 611,488 L 610,487 L 610,486 L 608,484 L 608,483 L 606,481 L 605,481 L 603,479 L 602,479 L 601,478 L 600,478 L 599,477 L 598,477 L 597,476 L 594,476 L 593,475 Z" fill="black" /><path d="M 524,475 L 523,476 L 520,476 L 519,477 L 518,477 L 517,478 L 516,478 L 515,479 L 514,479 L 512,481 L 511,481 L 507,485 L 507,486 L 504,489 L 504,490 L 503,491 L 503,493 L 502,494 L 502,495 L 501,496 L 501,501 L 500,502 L 500,512 L 501,513 L 501,517 L 502,518 L 502,520 L 503,521 L 503,523 L 505,525 L 505,526 L 507,528 L 507,529 L 510,532 L 511,532 L 514,535 L 515,535 L 516,536 L 517,536 L 518,537 L 519,537 L 520,538 L 523,538 L 524,539 L 536,539 L 537,538 L 540,538 L 541,537 L 542,537 L 543,536 L 544,536 L 545,535 L 546,535 L 553,528 L 553,527 L 554,526 L 554,525 L 555,524 L 555,523 L 556,522 L 556,521 L 555,521 L 554,520 L 552,520 L 551,519 L 549,519 L 548,518 L 546,518 L 545,517 L 544,517 L 543,516 L 542,517 L 542,518 L 541,519 L 541,520 L 537,524 L 536,524 L 535,525 L 533,525 L 532,526 L 529,526 L 528,525 L 525,525 L 524,524 L 523,524 L 520,521 L 520,520 L 518,518 L 518,517 L 517,516 L 517,513 L 516,512 L 516,501 L 517,500 L 517,498 L 518,497 L 518,496 L 519,495 L 519,494 L 523,490 L 524,490 L 525,489 L 527,489 L 528,488 L 533,488 L 534,489 L 535,489 L 536,490 L 537,490 L 541,494 L 541,496 L 542,497 L 542,498 L 543,497 L 544,497 L 545,496 L 546,496 L 547,495 L 549,495 L 550,494 L 551,494 L 552,493 L 553,493 L 554,492 L 555,492 L 555,491 L 554,490 L 554,489 L 553,488 L 553,487 L 552,486 L 552,485 L 547,480 L 546,480 L 544,478 L 543,478 L 542,477 L 540,477 L 539,476 L 537,476 L 536,475 Z" fill="black" /><path d="M 461,475 L 460,476 L 458,476 L 457,477 L 455,477 L 454,478 L 453,478 L 451,480 L 450,480 L 445,485 L 445,486 L 443,488 L 443,489 L 442,490 L 442,491 L 441,492 L 441,494 L 440,495 L 440,499 L 439,500 L 439,514 L 440,515 L 440,518 L 441,519 L 441,521 L 442,522 L 442,524 L 444,526 L 444,527 L 446,529 L 446,530 L 448,532 L 449,532 L 452,535 L 453,535 L 454,536 L 455,536 L 456,537 L 458,537 L 459,538 L 462,538 L 463,539 L 475,539 L 476,538 L 478,538 L 479,537 L 481,537 L 482,536 L 483,536 L 485,534 L 486,534 L 489,531 L 489,530 L 491,528 L 491,527 L 492,526 L 492,525 L 493,524 L 493,523 L 491,523 L 490,522 L 488,522 L 487,521 L 485,521 L 484,520 L 483,520 L 482,519 L 481,519 L 479,521 L 479,522 L 476,525 L 475,525 L 474,526 L 472,526 L 471,527 L 466,527 L 465,526 L 463,526 L 462,525 L 461,525 L 456,520 L 456,519 L 455,518 L 455,517 L 454,516 L 454,512 L 453,511 L 454,510 L 494,510 L 494,504 L 493,503 L 493,496 L 492,495 L 492,492 L 491,491 L 491,490 L 490,489 L 490,488 L 489,487 L 489,486 L 487,484 L 487,483 L 485,481 L 484,481 L 481,478 L 480,478 L 479,477 L 477,477 L 476,476 L 474,476 L 473,475 Z" fill="black" /><path d="M 905,457 L 905,475 L 904,476 L 896,476 L 895,477 L 895,488 L 904,488 L 905,489 L 905,524 L 906,525 L 906,527 L 907,528 L 907,530 L 912,535 L 913,535 L 914,536 L 915,536 L 916,537 L 918,537 L 919,538 L 924,538 L 925,539 L 929,539 L 930,538 L 935,538 L 935,523 L 933,523 L 932,524 L 927,524 L 926,523 L 924,523 L 921,520 L 921,519 L 920,518 L 920,489 L 921,488 L 934,488 L 934,476 L 921,476 L 920,475 L 920,458 L 919,457 L 918,458 L 906,458 Z" fill="black" /><path d="M 128,413 L 127,414 L 121,414 L 120,415 L 118,415 L 117,416 L 116,416 L 115,417 L 114,417 L 113,418 L 112,418 L 104,426 L 104,427 L 103,428 L 103,429 L 102,430 L 102,431 L 101,432 L 101,434 L 100,435 L 100,585 L 101,586 L 101,588 L 102,589 L 102,591 L 103,592 L 103,593 L 105,595 L 105,596 L 111,602 L 112,602 L 114,604 L 115,604 L 116,605 L 118,605 L 119,606 L 121,606 L 122,607 L 127,607 L 128,608 L 176,608 L 175,607 L 175,606 L 173,604 L 173,602 L 172,601 L 172,598 L 171,597 L 171,587 L 130,587 L 129,586 L 127,586 L 122,581 L 122,580 L 121,579 L 121,576 L 120,575 L 120,477 L 121,476 L 121,473 L 122,472 L 122,471 L 126,467 L 127,467 L 128,466 L 129,466 L 130,465 L 286,465 L 287,466 L 288,466 L 289,467 L 290,467 L 294,471 L 294,472 L 295,473 L 295,474 L 296,475 L 296,577 L 295,578 L 295,580 L 289,586 L 288,586 L 287,587 L 220,587 L 219,588 L 218,588 L 198,608 L 287,608 L 288,607 L 294,607 L 295,606 L 297,606 L 298,605 L 299,605 L 300,604 L 301,604 L 302,603 L 303,603 L 305,601 L 306,601 L 310,597 L 310,596 L 312,594 L 312,593 L 313,592 L 313,591 L 314,590 L 314,589 L 315,588 L 315,586 L 316,585 L 316,581 L 317,580 L 317,440 L 316,439 L 316,435 L 315,434 L 315,432 L 314,431 L 314,430 L 313,429 L 313,428 L 311,426 L 311,425 L 305,419 L 304,419 L 303,418 L 302,418 L 300,416 L 298,416 L 297,415 L 295,415 L 294,414 L 289,414 L 288,413 L 279,413 L 279,431 L 278,432 L 278,435 L 277,436 L 277,438 L 275,440 L 275,441 L 271,445 L 270,445 L 268,447 L 267,447 L 266,448 L 264,448 L 263,449 L 254,449 L 253,448 L 251,448 L 250,447 L 249,447 L 247,445 L 246,445 L 243,442 L 243,441 L 241,439 L 241,438 L 240,437 L 240,436 L 239,435 L 239,429 L 238,428 L 238,416 L 239,415 L 238,414 L 238,413 L 177,413 L 176,414 L 176,435 L 175,436 L 175,437 L 174,438 L 174,439 L 172,441 L 172,442 L 170,444 L 169,444 L 166,447 L 164,447 L 163,448 L 161,448 L 160,449 L 152,449 L 151,448 L 149,448 L 148,447 L 147,447 L 146,446 L 145,446 L 139,440 L 139,439 L 138,438 L 138,437 L 137,436 L 137,434 L 136,433 L 136,413 Z" fill="black" /><path d="M 258,390 L 257,391 L 254,391 L 252,393 L 251,393 L 251,394 L 249,396 L 249,397 L 248,398 L 248,432 L 249,433 L 249,434 L 253,438 L 254,438 L 255,439 L 262,439 L 263,438 L 264,438 L 268,434 L 268,433 L 269,432 L 269,398 L 268,397 L 268,396 L 267,395 L 267,394 L 266,393 L 265,393 L 263,391 L 261,391 L 260,390 Z" fill="black" /><path d="M 155,390 L 154,391 L 152,391 L 151,392 L 150,392 L 147,395 L 147,396 L 146,397 L 146,433 L 147,434 L 147,435 L 149,437 L 150,437 L 152,439 L 160,439 L 161,438 L 162,438 L 165,435 L 165,434 L 166,433 L 166,432 L 167,431 L 167,399 L 166,398 L 166,396 L 161,391 L 159,391 L 158,390 Z" fill="black" /></svg>